PathFileType	4	(X/Y/Z)	C:\Users\°ÂÌØÂü\Desktop\20210112\bx_y_5_901-Unnamed.trc
DataRate	CameraRate	NumFrames	NumMarkers	Units	OrigDataRate	OrigDataStartFrame	OrigNumFrames
50.00	50.00	       8	0	mm	50.00	198	       527
Frame#	Time	
		

198	3.940	-650.88635	214.17810	829.02338	-625.65759	276.33572	1526.06641	-579.66125	91.03706	1398.87439	-719.31586	75.13050	219.10831	-748.42151	276.70303	750.22015	-707.32959	281.69815	880.24445	-869.04913	102.78307	1050.33350	-675.89484	174.04732	159.59558	-744.54620	-50.44851	708.47327	-769.42615	253.97136	637.72894				-628.17859	-79.70096	1527.06995				-767.47430	249.57829	575.32294	-711.86194	206.42191	537.33191	-802.54590	260.68665	499.64053	-702.74097	18.01969	525.00159	-665.57355	-68.73948	161.46596	-732.95398	145.38029	576.36249	-624.44012	-79.35679	158.89534	-773.20746	226.64185	203.08189	-882.57214	296.20035	144.77759	-675.09064	54.26640	161.52942	-561.04993	-40.42132	162.60094	-603.23584	18.99798	167.88516	-750.27856	-26.41965	616.26233	-518.11200	-73.28707	143.05617	-595.70300	223.19742	173.62747	-665.46057	298.99496	159.59775	-627.78674	306.91721	161.56883	-562.01837	260.45645	165.48451	-528.00867	303.76645	146.61011	-594.00067	92.00041	1831.55933	-797.65668	176.40977	182.57436	-728.73450	80.46143	574.44751	-795.86176	54.28739	173.00627	-798.93292	-33.04992	485.59500	-770.52423	-6.85608	205.65051	-875.97400	-78.82437	141.25412				-657.69623	-9.16474	810.74585	-758.36627	-22.80855	567.54742							-715.32959	155.66077	219.73578	
199	3.960				-632.21710	276.11230	1528.92957	-583.12354	90.26085	1402.79150	-719.13330	74.94717	218.74965	-744.53094	276.49622	750.36438	-703.79156	280.57040	879.66626	-866.25323	102.25829	1049.92383	-675.87042	174.18944	159.55382	-741.79968	-50.96185	708.30969	-767.00061	253.92455	638.41473				-635.69385	-79.92715	1529.72119				-765.40198	248.85057	575.31073	-709.77319	206.28392	537.08575	-800.66193	260.19550	499.62869	-701.65826	17.51907	524.84363	-665.66473	-68.80201	161.28252	-730.74976	145.24358	575.98126	-624.53906	-79.45215	158.72371	-772.85626	226.78186	203.46895	-882.70166	296.19623	144.66789	-674.92352	54.08940	161.45164	-561.08392	-40.27554	162.88748	-603.79816	18.86963	168.06229	-748.15552	-26.45335	616.16541	-518.00201	-73.05941	143.04195	-595.69623	223.28819	173.54962	-665.55023	299.29449	159.89052	-627.89795	307.17120	161.63583	-562.03540	260.39301	165.53044	-527.88898	303.69800	146.58905	-602.58319	90.86259	1834.71204	-797.55042	176.45006	182.48746	-727.27722	80.22708	574.61060	-795.72693	54.54632	172.88382	-798.33710	-32.56451	486.44714	-770.52893	-6.46168	205.58167	-875.65533	-78.94249	141.29453				-654.63556	-9.73456	810.07385	-756.74011	-22.90198	567.37878							-715.13361	155.91479	219.71506	
200	3.980				-638.72394	275.78790	1531.03552	-587.32227	90.33938	1405.63599	-719.01355	74.95553	218.60258	-741.36200	275.72424	750.48425	-699.85699	280.34464	879.86334	-862.95593	102.30824	1049.01563	-675.94745	174.41338	159.29883	-739.26678	-51.51353	708.86090	-763.92029	253.46016	638.37341				-642.34180	-80.68001	1532.14404				-762.86731	248.64171	575.53998	-707.73071	205.74411	537.45612	-799.13525	260.12619	500.54544	-699.82391	16.80752	525.18732	-665.46216	-68.33389	161.23364	-727.95081	144.57430	576.36047	-624.64825	-79.49127	158.53960	-772.82520	226.62126	203.30081	-882.57581	295.99649	144.46762	-675.11090	54.33688	161.46437	-560.92981	-40.34827	162.60619	-603.76215	18.47022	168.09528	-746.28864	-26.64079	616.15143	-517.97479	-73.21391	142.95972	-595.44470	223.24210	173.68492	-665.51300	299.15268	159.65556	-627.80890	306.97629	161.71098	-562.02014	260.62216	165.67438	-528.05200	303.67453	146.32655	-610.76306	89.59242	1837.83032	-797.76117	176.50259	182.28102	-725.42816	80.02382	574.43280	-795.89056	54.38103	173.35573	-796.27472	-32.61335	485.95871	-771.12823	-6.87103	205.65607	-875.30084	-78.65993	140.61035				-651.76868	-9.90341	810.05994	-755.28296	-23.35283	567.79462							-714.81219	155.89908	219.78656	
201	4.000				-644.30878	275.65793	1532.91626	-590.50330	90.00597	1408.87720	-718.76172	75.02920	218.54256	-738.30524	275.22565	750.34082	-696.48175	279.65247	879.90619	-859.59546	101.60675	1047.86365	-675.89111	174.38388	159.13507	-736.34705	-51.45381	708.61633	-761.17804	252.32686	638.34406				-648.56665	-81.12248	1534.04065				-761.00287	248.34557	576.01147	-705.59961	205.78853	537.18286	-797.39307	259.49603	500.57202	-698.73755	16.71968	524.83282	-665.51898	-68.44814	161.14217	-726.22571	144.21762	576.49524	-624.51093	-79.53217	158.57707	-772.77075	226.56595	203.43195	-882.59216	296.17233	144.59991	-675.03632	54.07116	160.99918	-561.22601	-40.60245	162.64598	-603.70483	18.07334	168.41039	-744.58063	-27.33514	616.14813	-517.99951	-72.95855	143.00912	-595.39227	223.13818	173.53101	-665.59851	299.18839	159.70093	-627.80554	306.96991	161.52020	-562.02014	260.62216	165.67438	-528.06500	303.61819	146.42613	-618.54480	88.49178	1840.38049	-797.36096	176.59665	182.07501	-723.46472	79.63120	574.84821	-795.89056	54.38103	173.35573	-794.68872	-32.82485	485.95859	-770.80725	-6.71720	205.77261	-875.68604	-78.78122	140.71313				-648.73224	-10.25204	809.88733	-753.46942	-23.95280	568.25079							-714.05957	155.51453	219.70895	
202	4.020				-650.04291	275.94418	1534.75818	-593.60791	89.62857	1411.44153	-718.48761	74.77764	218.61002	-735.08276	274.78244	750.85718	-693.44629	279.21347	879.61456	-856.78107	101.14853	1047.05896	-675.92627	174.37599	158.92426	-733.56329	-52.08653	709.29236	-758.72540	252.53612	639.19879				-654.42914	-81.61598	1535.65356				-759.03455	247.92493	576.29871	-704.24097	205.19873	536.52106	-795.68616	258.74765	500.89746	-696.64294	16.56796	524.80029	-665.55597	-69.03006	161.36269	-723.87097	144.18872	576.88922	-624.45642	-79.61434	158.69203	-772.67053	226.50905	203.58084	-882.53223	296.04727	144.55872	-674.85004	54.11950	161.46831	-561.09497	-40.61647	162.67476	-603.70416	18.10340	168.23436	-742.14398	-27.40563	616.46667	-518.01898	-73.01341	143.10388	-595.39606	223.24594	173.55109	-665.55164	299.09930	159.69011	-628.01300	307.04309	161.45915	-561.98334	260.66568	165.70023	-527.98407	303.66110	146.47289	-625.96454	87.65356	1842.40173	-797.18970	176.36201	182.33510	-722.11591	79.64671	575.19354	-795.37579	54.31163	173.27542	-792.61267	-32.73252	486.12363	-770.80621	-6.78280	205.66782	-875.31744	-78.48772	140.89671				-645.00482	-10.54898	810.06403	-751.46979	-24.53301	568.13983							-713.59888	155.18091	219.39398	
203	4.040	-633.04919	212.27498	829.14319	-654.89264	275.46057	1536.08301	-596.15521	89.02701	1414.19824	-718.47357	74.88377	218.73970	-732.76495	274.25464	750.79132	-690.46582	278.26984	879.62494	-853.60486	100.86478	1045.98230	-675.92627	174.37599	158.92426	-730.53162	-52.20276	709.33002	-756.50714	251.88863	639.21796				-659.87061	-82.26389	1537.50208				-757.32617	247.53529	575.95746	-702.46014	205.15665	536.78125	-794.35870	258.39450	501.20404	-695.81622	15.96712	524.41046	-665.56525	-68.98862	161.26884	-721.78705	143.95175	576.50610	-624.52502	-79.79672	158.75374	-772.39148	226.11003	203.56154	-882.52209	296.00043	144.52548	-675.03467	54.15223	161.30922	-560.79547	-40.69678	162.56519	-603.71509	17.82346	168.51074	-740.07611	-27.76385	616.43665	-518.03418	-73.19009	142.97505	-595.41931	223.31750	173.57547	-665.51703	299.03519	159.85381	-628.14471	307.25839	161.72375	-562.06836	260.83810	165.70769	-528.18390	304.18793	146.52794	-633.19440	86.98300	1844.32031	-797.02783	176.28513	182.23186	-720.68872	79.24331	575.29736	-795.27441	54.22220	173.26865	-791.24896	-32.86177	486.40454	-770.65259	-6.77705	205.69049	-874.86688	-78.99069	141.00787				-642.37787	-10.88709	810.27954	-749.90747	-24.69692	568.02966							-713.35901	155.04247	219.44447	
204	4.060	-630.69781	212.51997	828.87207	-659.81116	275.20123	1537.48877	-598.85559	89.41903	1416.29907	-718.23413	74.79538	218.80959	-730.44476	273.88318	751.15039	-687.66840	278.48343	879.85577	-851.03680	100.66384	1045.61719	-676.03778	174.27951	159.03110	-727.67889	-52.59067	709.55682	-754.71759	252.02998	639.52368				-665.24133	-82.91920	1538.86377				-755.52930	247.40265	576.60486	-700.94159	204.81622	536.56042	-793.16833	258.03592	501.25742	-694.72107	15.60366	524.39551	-665.68884	-69.31805	160.88187	-719.84045	143.91824	576.71631	-624.61249	-79.80670	158.62167	-772.29651	226.09834	203.49962	-882.49280	296.14606	144.68233	-674.76721	53.84330	161.72552	-561.00690	-41.06810	162.42390	-603.89923	17.64898	168.70898	-738.14343	-28.15475	616.50916	-518.00800	-73.28026	143.03970	-595.32660	223.58986	173.74146	-665.56281	299.08011	159.84998	-628.31238	307.26459	161.58800	-562.21472	261.02875	165.53764	-528.19678	303.96454	146.27711	-640.47253	86.57344	1846.14929	-796.90485	176.22610	182.21777	-719.39557	78.59378	575.56555	-795.33008	54.20986	173.35391	-792.40222	-34.14101	487.05112	-770.76117	-7.06542	205.79106	-876.15698	-79.18539	141.27307				-639.25262	-11.21853	810.26178	-749.06323	-25.50636	568.87439							-713.29279	154.90903	219.32289	
205	4.080	-629.03345	211.64444	828.34363	-664.35016	275.22958	1538.16235				-718.38745	74.61709	218.70177	-728.25641	273.62466	751.11267	-685.22180	278.03885	879.70032	-848.09760	100.31802	1044.95129	-675.92627	174.37599	158.92426	-726.17529	-53.15251	709.58917	-752.92749	251.62573	639.78778	-601.24170	89.53519	1417.22095	-670.16998	-83.16674	1539.89514				-754.55084	246.61942	576.53229	-699.66998	204.62115	536.55774	-792.20984	257.67535	501.59753	-693.86725	15.22603	524.33752	-665.70435	-69.36581	160.82639	-717.99683	143.47142	577.11407	-624.51904	-79.81279	158.69493	-772.24457	225.89766	203.46968	-882.51172	296.15729	144.67366	-674.89728	53.79546	161.79446	-560.86713	-40.98410	162.62012	-603.98260	17.64888	168.63072	-736.56805	-29.04496	617.14929	-517.99951	-72.95855	143.00912	-595.48395	223.50145	173.72948	-665.60168	299.23148	159.74754	-628.30914	307.46857	161.65416	-562.21472	261.02875	165.53764	-528.13831	304.00220	146.62164	-647.10199	86.07588	1847.25476	-796.86603	176.20526	182.38464	-718.57227	78.32861	575.22736	-795.16168	54.14257	173.30531	-791.02228	-34.02693	487.15579	-770.98242	-7.23516	205.96495	-875.99298	-78.87768	141.19183				-636.50153	-11.12065	809.77783	-747.80695	-25.42534	568.23859							-713.11615	154.97682	219.34863	
